<svg width="226" height="220" viewBox="0 0 226 220" fill="none" xmlns="http://www.w3.org/2000/svg">
<path d="M113 87.2667C108.381 87.2667 103.866 88.6 100.026 91.0979C96.1852 93.5959 93.1919 97.1464 91.4243 101.3C89.6568 105.454 89.1943 110.025 90.0954 114.435C90.9965 118.845 93.2207 122.896 96.4867 126.075C99.7527 129.254 103.914 131.419 108.444 132.297C112.974 133.174 117.67 132.723 121.937 131.003C126.204 129.282 129.851 126.368 132.418 122.63C134.984 118.891 136.353 114.496 136.353 110C136.353 107.015 135.749 104.058 134.576 101.3C133.402 98.5422 131.682 96.0361 129.513 93.9251C127.345 91.8141 124.77 90.1396 121.937 88.9971C119.104 87.8547 116.067 87.2667 113 87.2667ZM206.508 64.8083C206.458 57.7295 205.119 50.7152 202.552 44.0917C200.662 39.2449 197.738 34.8434 193.972 31.1775C190.206 27.5117 185.685 24.6649 180.706 22.825C173.902 20.3268 166.696 19.0232 159.424 18.975C147.277 18.3333 143.698 18.3333 113 18.3333C82.3017 18.3333 78.7233 18.3333 66.5758 18.975C59.3039 19.0232 52.0984 20.3268 45.2942 22.825C40.3152 24.6649 35.7936 27.5117 32.0278 31.1775C28.262 34.8434 25.3376 39.2449 23.4475 44.0917C20.8811 50.7152 19.5421 57.7295 19.4925 64.8083C18.8333 76.6333 18.8333 80.1167 18.8333 110C18.8333 139.883 18.8333 143.367 19.4925 155.192C19.5939 162.295 20.9311 169.331 23.4475 176C25.3292 180.825 28.2512 185.201 32.0167 188.833C35.7663 192.521 40.2976 195.368 45.2942 197.175C52.0984 199.673 59.3039 200.977 66.5758 201.025C78.7233 201.667 82.3017 201.667 113 201.667C143.698 201.667 147.277 201.667 159.424 201.025C166.696 200.977 173.902 199.673 180.706 197.175C185.702 195.368 190.234 192.521 193.983 188.833C197.749 185.201 200.671 180.825 202.552 176C205.116 169.344 206.455 162.3 206.508 155.192C207.167 143.367 207.167 139.883 207.167 110C207.167 80.1167 207.167 76.6333 206.508 64.8083ZM182.589 138.142C182.287 143.798 181.047 149.37 178.917 154.642C177.089 159.039 174.371 163.033 170.925 166.387C167.48 169.742 163.376 172.387 158.859 174.167C153.393 176.125 147.637 177.208 141.815 177.375H84.185C78.363 177.208 72.6071 176.125 67.1408 174.167C62.4711 172.477 58.2541 169.782 54.805 166.283C51.393 162.995 48.758 159.022 47.0833 154.642C45.064 149.326 43.9816 143.717 43.8817 138.05V81.95C43.9816 76.2834 45.064 70.6739 47.0833 65.3583C48.8187 60.8126 51.5871 56.7075 55.1817 53.35C58.5748 50.0466 62.6516 47.4842 67.1408 45.8333C72.6071 43.8754 78.363 42.7919 84.185 42.625H141.815C147.637 42.7919 153.393 43.8754 158.859 45.8333C163.529 47.5226 167.746 50.2175 171.195 53.7167C174.607 57.0052 177.242 60.9779 178.917 65.3583C180.928 70.6795 182.041 76.2825 182.213 81.95V110C182.213 128.883 182.872 130.808 182.589 138.05V138.142ZM167.523 69.9417C166.401 66.9807 164.634 64.2917 162.341 62.0603C160.049 59.8289 157.287 58.1081 154.245 57.0167C150.068 55.6074 145.67 54.9248 141.25 55H84.75C80.3079 55.0423 75.9084 55.8492 71.755 57.3833C68.7598 58.4252 66.0268 60.0757 63.7375 62.2252C61.4482 64.3747 59.6552 66.9739 58.4775 69.85C57.11 73.9325 56.4419 78.2063 56.5 82.5V137.5C56.5934 141.819 57.4207 146.094 58.9483 150.15C60.0695 153.111 61.8372 155.8 64.1295 158.031C66.4218 160.263 69.1841 161.984 72.2258 163.075C76.2436 164.513 80.4716 165.318 84.75 165.458H141.25C145.692 165.416 150.092 164.609 154.245 163.075C157.287 161.984 160.049 160.263 162.341 158.031C164.634 155.8 166.401 153.111 167.523 150.15C169.099 146.107 169.927 141.824 169.971 137.5V82.5C169.974 78.1715 169.143 73.8808 167.523 69.85V69.9417ZM113 145.017C108.281 145.017 103.607 144.11 99.2485 142.349C94.8895 140.589 90.9302 138.008 87.5974 134.755C84.2647 131.502 81.6239 127.641 79.8264 123.393C78.029 119.145 77.1101 114.594 77.1225 110C77.1225 103.07 79.2346 96.2967 83.1914 90.5363C87.1482 84.7759 92.7718 80.2878 99.3502 77.6401C105.929 74.9925 113.166 74.3045 120.147 75.663C127.127 77.0216 133.536 80.3657 138.563 85.2721C143.59 90.1784 147.009 96.4264 148.386 103.225C149.763 110.024 149.038 117.067 146.301 123.464C143.563 129.861 138.938 135.323 133.01 139.16C127.082 142.997 120.119 145.035 113 145.017ZM150.667 81.8583C148.585 81.6439 146.659 80.687 145.259 79.1722C143.858 77.6574 143.084 75.6919 143.084 73.6542C143.084 71.6165 143.858 69.6509 145.259 68.1361C146.659 66.6213 148.585 65.6645 150.667 65.45C152.748 65.6645 154.675 66.6213 156.075 68.1361C157.475 69.6509 158.25 71.6165 158.25 73.6542C158.25 75.6919 157.475 77.6574 156.075 79.1722C154.675 80.687 152.748 81.6439 150.667 81.8583Z" fill="#8A2BE2"/>
</svg>
