<svg width="245" height="241" viewBox="0 0 245 241" fill="none" xmlns="http://www.w3.org/2000/svg">
<path d="M122.5 20.0833C109.094 20.0833 95.8197 22.6807 83.4344 27.7271C71.0491 32.7735 59.7955 40.1702 50.3162 49.4947C31.1719 68.3265 20.4167 93.8678 20.4167 120.5C20.4167 164.884 49.7146 202.54 90.2417 215.896C95.3459 216.699 96.9792 213.586 96.9792 210.875V193.905C68.7021 199.93 62.6792 180.449 62.6792 180.449C57.9834 168.8 51.3479 165.688 51.3479 165.688C42.0584 159.462 52.0625 159.662 52.0625 159.662C62.2709 160.365 67.6813 170.005 67.6813 170.005C76.5625 185.269 91.5688 180.75 97.3875 178.34C98.3063 171.813 100.96 167.395 103.819 164.884C81.1563 162.374 57.3709 153.738 57.3709 115.479C57.3709 104.333 61.25 95.3958 67.8854 88.2663C66.8646 85.7558 63.2917 75.3125 68.9063 61.7563C68.9063 61.7563 77.4813 59.045 96.9792 71.9988C105.044 69.7896 113.823 68.685 122.5 68.685C131.177 68.685 139.956 69.7896 148.021 71.9988C167.519 59.045 176.094 61.7563 176.094 61.7563C181.708 75.3125 178.135 85.7558 177.115 88.2663C183.75 95.3958 187.629 104.333 187.629 115.479C187.629 153.838 163.742 162.273 140.977 164.784C144.652 167.897 148.021 174.022 148.021 183.361V210.875C148.021 213.586 149.654 216.8 154.86 215.896C195.388 202.44 224.583 164.884 224.583 120.5C224.583 107.313 221.943 94.2553 216.813 82.0722C211.683 69.8891 204.163 58.8193 194.684 49.4947C185.205 40.1702 173.951 32.7735 161.566 27.7271C149.18 22.6807 135.906 20.0833 122.5 20.0833Z" fill="#8A2BE2"/>
</svg>
