<svg width="183" height="175" viewBox="0 0 183 175" fill="none" xmlns="http://www.w3.org/2000/svg">
<path d="M162.667 0C168.059 0 173.231 2.0486 177.045 5.69515C180.858 9.34169 183 14.2875 183 19.4444V155.556C183 160.713 180.858 165.658 177.045 169.305C173.231 172.951 168.059 175 162.667 175H20.3333C14.9406 175 9.76873 172.951 5.95549 169.305C2.14225 165.658 0 160.713 0 155.556V19.4444C0 14.2875 2.14225 9.34169 5.95549 5.69515C9.76873 2.0486 14.9406 0 20.3333 0H162.667ZM152.583 150.694C155.345 150.694 157.583 148.456 157.583 145.694V99.1667C157.583 90.7608 154.091 82.6992 147.876 76.7553C141.66 70.8114 133.23 67.4722 124.44 67.4722C118.401 67.4722 111.666 69.9415 106.492 74.0173C104.57 75.531 100.853 74.2173 100.853 71.7711V71.7711C100.853 70.4171 99.7557 69.3194 98.4017 69.3194H77.4883C74.7269 69.3194 72.4883 71.558 72.4883 74.3194V145.694C72.4883 148.456 74.7269 150.694 77.4883 150.694H95.8533C98.6148 150.694 100.853 148.456 100.853 145.694V102.764C100.853 95.2778 107.157 89.1528 114.985 89.1528C118.76 89.1528 122.38 90.5868 125.049 93.1394C127.719 95.692 129.218 99.154 129.218 102.764V145.694C129.218 148.456 131.457 150.694 134.218 150.694H152.583ZM39.4467 54.0556C43.9766 54.0556 48.3209 52.3347 51.5241 49.2716C54.7272 46.2085 56.5267 42.0541 56.5267 37.7222C56.5267 28.6806 48.9017 21.2917 39.4467 21.2917C34.8898 21.2917 30.5196 23.0227 27.2974 26.1041C24.0752 29.1854 22.265 33.3646 22.265 37.7222C22.265 46.7639 29.9917 54.0556 39.4467 54.0556ZM48.5783 150.694C51.3398 150.694 53.5783 148.456 53.5783 145.694V74.3194C53.5783 71.558 51.3398 69.3194 48.5783 69.3194H30.4167C27.6552 69.3194 25.4167 71.558 25.4167 74.3194V145.694C25.4167 148.456 27.6552 150.694 30.4167 150.694H48.5783Z" fill="#8A2BE2"/>
</svg>
