<svg width="57" height="57" viewBox="0 0 57 57" fill="none" xmlns="http://www.w3.org/2000/svg">
<path d="M16.53 0H40.47C49.59 0 57 7.39553 57 16.4977V40.391C57 44.7664 55.2584 48.9627 52.1585 52.0566C49.0585 55.1505 44.854 56.8887 40.47 56.8887H16.53C7.41 56.8887 0 49.4931 0 40.391V16.4977C0 12.1222 1.74155 7.92599 4.84153 4.83207C7.9415 1.73815 12.146 0 16.53 0ZM15.96 5.68887C13.2389 5.68887 10.6292 6.76772 8.70508 8.68808C6.78096 10.6084 5.7 13.213 5.7 15.9288V40.9598C5.7 46.6203 10.2885 51.1998 15.96 51.1998H41.04C43.7611 51.1998 46.3708 50.121 48.2949 48.2006C50.219 46.2802 51.3 43.6756 51.3 40.9598V15.9288C51.3 10.2684 46.7115 5.68887 41.04 5.68887H15.96ZM43.4625 9.95552C44.4073 9.95552 45.3135 10.3301 45.9816 10.9969C46.6497 11.6637 47.025 12.5681 47.025 13.5111C47.025 14.454 46.6497 15.3584 45.9816 16.0252C45.3135 16.692 44.4073 17.0666 43.4625 17.0666C42.5177 17.0666 41.6115 16.692 40.9434 16.0252C40.2753 15.3584 39.9 14.454 39.9 13.5111C39.9 12.5681 40.2753 11.6637 40.9434 10.9969C41.6115 10.3301 42.5177 9.95552 43.4625 9.95552ZM28.5 14.2222C32.2793 14.2222 35.9039 15.7206 38.5763 18.3877C41.2487 21.0549 42.75 24.6724 42.75 28.4443C42.75 32.2163 41.2487 35.8338 38.5763 38.5009C35.9039 41.1681 32.2793 42.6665 28.5 42.6665C24.7207 42.6665 21.0961 41.1681 18.4237 38.5009C15.7513 35.8338 14.25 32.2163 14.25 28.4443C14.25 24.6724 15.7513 21.0549 18.4237 18.3877C21.0961 15.7206 24.7207 14.2222 28.5 14.2222ZM28.5 19.911C26.2324 19.911 24.0577 20.8101 22.4542 22.4104C20.8508 24.0107 19.95 26.1812 19.95 28.4443C19.95 30.7075 20.8508 32.878 22.4542 34.4783C24.0577 36.0786 26.2324 36.9776 28.5 36.9776C30.7676 36.9776 32.9423 36.0786 34.5458 34.4783C36.1492 32.878 37.05 30.7075 37.05 28.4443C37.05 26.1812 36.1492 24.0107 34.5458 22.4104C32.9423 20.8101 30.7676 19.911 28.5 19.911Z" fill="#140C6C"/>
</svg>
