<svg width="57" height="57" viewBox="0 0 57 57" fill="none" xmlns="http://www.w3.org/2000/svg">
<path d="M28.5 0C24.7573 0 21.0513 0.754001 17.5935 2.21895C14.1357 3.6839 10.9939 5.83111 8.34746 8.53799C3.00267 14.0048 0 21.4193 0 29.1505C0 42.0351 8.1795 52.9665 19.494 56.8435C20.919 57.0767 21.375 56.1731 21.375 55.386V50.4596C13.4805 52.2086 11.799 46.5534 11.799 46.5534C10.488 43.1719 8.6355 42.2683 8.6355 42.2683C6.042 40.4609 8.835 40.5192 8.835 40.5192C11.685 40.7233 13.1955 43.5217 13.1955 43.5217C15.675 47.9526 19.8645 46.6408 21.489 45.9412C21.7455 44.0464 22.4865 42.7638 23.2845 42.0351C16.9575 41.3063 10.317 38.7993 10.317 27.693C10.317 24.4573 11.4 21.8629 13.2525 19.7932C12.9675 19.0644 11.97 16.0328 13.5375 12.0975C13.5375 12.0975 15.9315 11.3104 21.375 15.0708C23.6265 14.4295 26.0775 14.1089 28.5 14.1089C30.9225 14.1089 33.3735 14.4295 35.625 15.0708C41.0685 11.3104 43.4625 12.0975 43.4625 12.0975C45.03 16.0328 44.0325 19.0644 43.7475 19.7932C45.6 21.8629 46.683 24.4573 46.683 27.693C46.683 38.8285 40.014 41.2771 33.6585 42.0059C34.6845 42.9096 35.625 44.6878 35.625 47.3988V55.386C35.625 56.1731 36.081 57.1059 37.5345 56.8435C48.849 52.9373 57 42.0351 57 29.1505C57 25.3224 56.2628 21.5318 54.8306 17.9951C53.3983 14.4584 51.299 11.2449 48.6525 8.53799C46.0061 5.83111 42.8643 3.6839 39.4065 2.21895C35.9487 0.754001 32.2427 0 28.5 0Z" fill="#140C6C"/>
</svg>
