<svg width="60" height="60" viewBox="0 0 60 60" fill="none" xmlns="http://www.w3.org/2000/svg">
<path d="M56.15 15C54.225 15.875 52.15 16.45 50 16.725C52.2 15.4 53.9 13.3 54.7 10.775C52.625 12.025 50.325 12.9 47.9 13.4C45.925 11.25 43.15 10 40 10C34.125 10 29.325 14.8 29.325 20.725C29.325 21.575 29.425 22.4 29.6 23.175C20.7 22.725 12.775 18.45 7.50001 11.975C6.57501 13.55 6.05001 15.4 6.05001 17.35C6.05001 21.075 7.92501 24.375 10.825 26.25C9.05001 26.25 7.40001 25.75 5.95001 25V25.075C5.95001 30.275 9.65001 34.625 14.55 35.6C12.9771 36.0323 11.3251 36.0923 9.72501 35.775C10.404 37.9062 11.7338 39.771 13.5275 41.1073C15.3212 42.4436 17.4886 43.1842 19.725 43.225C15.9342 46.2263 11.235 47.8485 6.40001 47.825C5.55001 47.825 4.70001 47.775 3.85001 47.675C8.60001 50.725 14.25 52.5 20.3 52.5C40 52.5 50.825 36.15 50.825 21.975C50.825 21.5 50.825 21.05 50.8 20.575C52.9 19.075 54.7 17.175 56.15 15Z" fill="#140C6C"/>
</svg>
