<svg width="58" height="58" viewBox="0 0 58 58" fill="none" xmlns="http://www.w3.org/2000/svg">
<path d="M29 0.779999C13.4167 0.779999 0.666687 13.5017 0.666687 29.17C0.666687 43.3367 11.0367 55.095 24.58 57.22V37.3867H17.3834V29.17H24.58V22.9083C24.58 15.7967 28.8017 11.8867 35.29 11.8867C38.3783 11.8867 41.6084 12.425 41.6084 12.425V19.4233H38.0383C34.525 19.4233 33.42 21.605 33.42 23.8433V29.17H41.2967L40.0217 37.3867H33.42V57.22C40.0966 56.1656 46.1763 52.759 50.5615 47.6152C54.9467 42.4714 57.3485 35.9293 57.3333 29.17C57.3333 13.5017 44.5833 0.779999 29 0.779999Z" fill="#140C6C"/>
</svg>
